<svg width="14" height="15" viewBox="0 0 14 15" fill="none" xmlns="http://www.w3.org/2000/svg">
<path d="M13 13.5L9 9.5M1 6.16667C1 6.7795 1.12071 7.38634 1.35523 7.95252C1.58975 8.51871 1.93349 9.03316 2.36683 9.4665C2.80018 9.89984 3.31462 10.2436 3.88081 10.4781C4.447 10.7126 5.05383 10.8333 5.66667 10.8333C6.2795 10.8333 6.88634 10.7126 7.45252 10.4781C8.01871 10.2436 8.53316 9.89984 8.9665 9.4665C9.39984 9.03316 9.74358 8.51871 9.97811 7.95252C10.2126 7.38634 10.3333 6.7795 10.3333 6.16667C10.3333 5.55383 10.2126 4.947 9.97811 4.38081C9.74358 3.81462 9.39984 3.30018 8.9665 2.86683C8.53316 2.43349 8.01871 2.08975 7.45252 1.85523C6.88634 1.62071 6.2795 1.5 5.66667 1.5C5.05383 1.5 4.447 1.62071 3.88081 1.85523C3.31462 2.08975 2.80018 2.43349 2.36683 2.86683C1.93349 3.30018 1.58975 3.81462 1.35523 4.38081C1.12071 4.947 1 5.55383 1 6.16667Z" stroke="#1EAFBE" stroke-width="1.5" stroke-linecap="round" stroke-linejoin="round"/>
</svg>
