<svg width="37" height="33" viewBox="0 0 37 33" fill="none" xmlns="http://www.w3.org/2000/svg">
<path d="M37 0H35C29.4772 0 25 4.47715 25 10V33H37V0Z" fill="#1EAFBE"/>
<path d="M0 0H15C20.5228 0 25 4.47715 25 10V33H0V0Z" fill="#001E3C"/>
<path d="M33.672 24.5825H30.1242L25.8173 18.4688L21.4775 24.5825H17.9297L24.0434 15.9357L17.9297 7.32178H21.4775L25.8173 13.4355L30.1242 7.32178H33.672L27.5912 15.9357L33.672 24.5825Z" fill="white"/>
<path fill-rule="evenodd" clip-rule="evenodd" d="M16.3711 15.1875C16.769 13.9173 16.5244 12.7165 15.6338 11.5886C14.579 10.2272 13.0059 9.54465 10.9108 9.53735C8.8741 9.53735 7.16227 10.2673 5.77163 11.72C4.38099 13.1764 3.6875 14.9649 3.6875 17.0928C3.6875 19.2025 4.38829 20.9946 5.78623 22.4655C7.18417 23.9365 8.88505 24.6738 10.8852 24.6738C12.5934 24.6738 14.0753 24.1482 15.3309 23.0933L14.2688 21.6771C13.4512 22.1699 12.4328 22.4144 11.2137 22.4144C10.0129 22.4144 8.9836 22.0385 8.11856 21.2829C7.25717 20.5274 6.69872 19.5711 6.44323 18.4068H10.5604C11.5605 18.4068 12.462 18.279 13.2614 18.0235C14.9367 17.4979 15.9696 16.5526 16.3711 15.1875ZM6.41768 15.8992C6.65492 14.7167 7.20242 13.7348 8.06746 12.9537C8.92885 12.1726 9.98005 11.7821 11.2137 11.7821C12.1043 11.7821 12.8161 12.0558 13.3417 12.5997C13.9439 13.2165 14.0899 13.8626 13.7797 14.5342C13.3782 15.4467 12.3416 15.8992 10.6699 15.8992H6.41768Z" fill="white"/>
</svg>
