<svg width="115" height="40" viewBox="0 0 115 40" fill="none" xmlns="http://www.w3.org/2000/svg">
<g clip-path="url(#clip0_247_686)">
<path d="M1.79206 35.266C2.00011 35.2952 2.23006 35.3609 2.4746 35.4631C2.71915 35.5653 2.9272 35.6967 3.0951 35.8646C3.26665 36.0325 3.409 36.2625 3.52215 36.5581C3.63894 36.8574 3.69369 37.2078 3.69369 37.6093C3.69369 39.2044 2.83595 40.0001 1.11682 40.0001C0.981768 40.0001 0.857669 39.9891 0.74087 39.9672C0.624071 39.9453 0.510922 39.9052 0.397773 39.8504C0.284624 39.7957 0.197024 39.7117 0.131325 39.5986C0.0656256 39.4854 0.0327759 39.3504 0.0327759 39.1898V36.0362C0.0327759 35.8756 0.0656256 35.7405 0.131325 35.6274C0.197024 35.5142 0.284624 35.4303 0.397773 35.3755C0.510922 35.3208 0.624071 35.2806 0.74087 35.2587C0.857669 35.2368 0.978118 35.2259 1.10952 35.2259C1.35771 35.2222 1.58401 35.2368 1.79206 35.266ZM0.65327 35.7405C0.536471 35.8245 0.481722 35.9778 0.481722 36.2041V39.0255C0.481722 39.2518 0.540121 39.4051 0.65692 39.4854C0.773719 39.5657 0.941618 39.6059 1.16062 39.6059C1.29931 39.6059 1.43071 39.5986 1.55481 39.584C1.67891 39.5694 1.82491 39.5402 2.00011 39.5C2.17166 39.4599 2.32496 39.3905 2.46 39.2993C2.59505 39.208 2.71915 39.0912 2.84325 38.9525C2.9637 38.8138 3.0586 38.6277 3.12795 38.4014C3.1973 38.1751 3.23015 37.9123 3.23015 37.6166C3.23015 37.2662 3.17905 36.9633 3.07685 36.7041C2.97465 36.445 2.85055 36.2515 2.7082 36.1165C2.56585 35.9814 2.39066 35.8756 2.18626 35.7953C1.98186 35.715 1.80301 35.6675 1.64971 35.6456C1.49641 35.6274 1.33581 35.6164 1.16427 35.6164C0.934318 35.6164 0.766419 35.6566 0.65327 35.7405Z" fill="white"/>
<path d="M5.52252 35.6455C5.30352 35.6455 5.13562 35.6856 5.01882 35.7696C4.90202 35.8499 4.84362 36.0068 4.84362 36.2331V37.4157H7.11025V37.8099H4.84362V38.9925C4.84362 39.2188 4.90202 39.3721 5.01882 39.4524C5.13562 39.5327 5.30352 39.5728 5.52252 39.5728H7.2161V39.9743H5.48602C5.35097 39.9743 5.22687 39.9634 5.11007 39.9415C4.99327 39.9196 4.88012 39.8794 4.76697 39.8247C4.65383 39.7699 4.56623 39.686 4.50053 39.5728C4.43483 39.4597 4.40198 39.3246 4.40198 39.164V36.0725C4.40198 35.9119 4.43483 35.7769 4.50053 35.6637C4.56623 35.5506 4.65383 35.4666 4.76697 35.4119C4.88012 35.3571 4.99327 35.317 5.11007 35.2951C5.22687 35.2732 5.35097 35.2622 5.48602 35.2622H7.2161V35.6564H5.52252V35.6455Z" fill="white"/>
<path d="M10.5923 35.7258C10.3514 35.671 10.1069 35.6382 9.86597 35.6272C9.62507 35.6163 9.38782 35.6236 9.15787 35.6565C8.92793 35.6893 8.74178 35.7696 8.59578 35.8937C8.45343 36.0178 8.37678 36.1857 8.37313 36.3901C8.37313 36.5397 8.41328 36.6748 8.49358 36.7879C8.57388 36.9047 8.67973 36.996 8.81843 37.0617C8.95348 37.131 9.10677 37.1967 9.27832 37.2661C9.44987 37.3354 9.62142 37.3938 9.79662 37.4449C9.97182 37.496 10.1397 37.5617 10.304 37.6457C10.4682 37.726 10.6142 37.8172 10.7383 37.9158C10.8624 38.0143 10.9573 38.1457 11.023 38.3063C11.0851 38.4669 11.107 38.6531 11.0887 38.8648C11.0559 39.2006 10.9208 39.4634 10.6836 39.6495C10.4463 39.8357 10.158 39.9452 9.81852 39.9744C9.47907 40.0036 9.13597 39.989 8.78193 39.9379C8.43153 39.8831 8.09938 39.7955 7.79279 39.6714L7.92053 39.332C8.16143 39.4159 8.43153 39.478 8.71988 39.5218C9.01187 39.5656 9.30387 39.5802 9.59587 39.5692C9.88787 39.5583 10.1288 39.4816 10.3222 39.3466C10.5157 39.2115 10.6106 39.0144 10.6106 38.7626C10.6106 38.5947 10.5668 38.4487 10.4755 38.3282C10.3843 38.2078 10.2675 38.1092 10.1215 38.0399C9.97547 37.9669 9.81487 37.9012 9.63602 37.8428C9.45717 37.7844 9.27467 37.7223 9.09217 37.6566C8.90603 37.5909 8.73448 37.5143 8.57388 37.4303C8.41328 37.3464 8.27458 37.2332 8.15413 37.0909C8.03368 36.9485 7.96068 36.7806 7.92783 36.5872C7.86578 36.2331 7.95703 35.9338 8.19428 35.693C8.43518 35.4521 8.77098 35.3061 9.20167 35.2586C9.63237 35.2075 10.1251 35.2477 10.6799 35.3754L10.5923 35.7258Z" fill="white"/>
<path d="M12.9174 35.6455C12.6984 35.6455 12.5305 35.6856 12.4137 35.7696C12.2969 35.8499 12.2385 36.0068 12.2385 36.2331V37.4157H14.5051V37.8099H12.2385V38.9925C12.2385 39.2188 12.2969 39.3721 12.4137 39.4524C12.5305 39.5327 12.6984 39.5728 12.9174 39.5728H14.6109V39.9743H12.8809C12.7458 39.9743 12.6217 39.9634 12.5049 39.9415C12.3881 39.9196 12.275 39.8794 12.1618 39.8247C12.0487 39.7699 11.9611 39.686 11.8954 39.5728C11.8297 39.4597 11.7968 39.3246 11.7968 39.164V36.0725C11.7968 35.9119 11.8297 35.7769 11.8954 35.6637C11.9611 35.5506 12.0487 35.4666 12.1618 35.4119C12.275 35.3571 12.3881 35.317 12.5049 35.2951C12.6217 35.2732 12.7458 35.2622 12.8809 35.2622H14.6109V35.6564H12.9174V35.6455Z" fill="white"/>
<path d="M19.1661 39.6861C19.1661 39.8358 19.1114 39.927 18.9982 39.9598C18.8851 39.9963 18.7902 39.9598 18.7172 39.8576L15.841 36.1018V39.9708H15.3957V35.5361C15.3957 35.3864 15.4504 35.2952 15.5636 35.2623C15.6767 35.2258 15.7716 35.2623 15.8446 35.3645L18.7208 39.1204V35.2514H19.1661V39.6861Z" fill="white"/>
<path d="M22.1299 39.8465C22.0934 39.9305 22.0277 39.9706 21.9401 39.9706C21.8999 39.9706 21.8634 39.9597 21.8306 39.9414C21.8014 39.9195 21.7795 39.9013 21.7649 39.8794L21.7539 39.8502L19.8304 35.2549H20.3304L21.9401 39.1238L23.6227 35.2549H24.1227L22.1299 39.8465Z" fill="white"/>
<path d="M27.7179 35.5726C28.0719 35.8061 28.342 36.1054 28.5245 36.4631C28.7107 36.8245 28.8019 37.2077 28.8019 37.6092C28.8019 38.0107 28.7107 38.394 28.5245 38.7553C28.3384 39.1167 28.0719 39.416 27.7179 39.6496C27.3638 39.8832 26.9697 40 26.5353 40C26.0973 40 25.6995 39.8832 25.3491 39.6532C24.9987 39.4233 24.7286 39.1276 24.5461 38.7663C24.3599 38.4049 24.2687 38.018 24.2687 37.6092C24.2687 37.1968 24.3599 36.8135 24.5461 36.4522C24.7322 36.0908 24.9987 35.7952 25.3491 35.5653C25.6995 35.3353 26.0973 35.2185 26.5353 35.2185C26.9697 35.2222 27.3638 35.339 27.7179 35.5726ZM25.2359 36.204C24.8855 36.5799 24.7103 37.0471 24.7103 37.6092C24.7103 38.1713 24.8855 38.6422 25.2359 39.0181C25.5863 39.3941 26.0207 39.5802 26.5317 39.5802C27.0463 39.5802 27.477 39.3904 27.8274 39.0108C28.1778 38.6312 28.353 38.164 28.353 37.6092C28.353 37.0544 28.1778 36.5872 27.8274 36.2076C27.477 35.828 27.0427 35.6383 26.5317 35.6383C26.0207 35.6419 25.59 35.8281 25.2359 36.204Z" fill="white"/>
<path d="M29.9481 38.9888C29.9481 39.2151 30.0065 39.3684 30.1233 39.4487C30.2401 39.529 30.408 39.5691 30.627 39.5691H32.3206V39.9706H30.5905C30.4555 39.9706 30.3314 39.9597 30.2146 39.9378C30.0978 39.9159 29.9846 39.8757 29.8715 39.821C29.7583 39.7662 29.6707 39.6823 29.605 39.5691C29.5393 39.456 29.5065 39.3209 29.5065 39.1603V35.2549H29.9518V38.9888H29.9481Z" fill="white"/>
<path d="M34.7186 39.8465C34.6821 39.9305 34.6164 39.9706 34.5288 39.9706C34.4887 39.9706 34.4522 39.9597 34.423 39.9414C34.3938 39.9195 34.3719 39.9013 34.3573 39.8794L34.3463 39.8502L32.4228 35.2549H32.9228L34.5325 39.1238L36.2151 35.2549H36.7152L34.7186 39.8465Z" fill="white"/>
<path d="M37.1531 39.9709V35.2515H37.5984V39.9709H37.1531Z" fill="white"/>
<path d="M42.1061 35.3645C42.1791 35.266 42.274 35.2331 42.3871 35.266C42.5003 35.2988 42.555 35.3901 42.555 35.5361V39.9708H42.1097V36.1748L40.741 38.1641C40.6862 38.2736 40.595 38.332 40.4636 38.332C40.4052 38.332 40.3541 38.3174 40.3103 38.2882C40.2665 38.259 40.2337 38.2334 40.2191 38.2079L40.1899 38.1641L38.8284 36.1748V39.9671H38.3831V35.5361C38.3831 35.3864 38.4379 35.2988 38.551 35.266C38.6605 35.2331 38.7554 35.266 38.8357 35.3645L40.4672 37.7662L42.1061 35.3645Z" fill="white"/>
<path d="M44.4676 35.6455C44.2487 35.6455 44.0808 35.6856 43.964 35.7696C43.8472 35.8499 43.7888 36.0068 43.7888 36.2331V37.4157H46.0554V37.8099H43.7888V38.9925C43.7888 39.2188 43.8472 39.3721 43.964 39.4524C44.0808 39.5327 44.2487 39.5728 44.4676 39.5728H46.1612V39.9743H44.4312C44.2961 39.9743 44.172 39.9634 44.0552 39.9415C43.9384 39.9196 43.8253 39.8794 43.7121 39.8247C43.599 39.7699 43.5114 39.686 43.4457 39.5728C43.38 39.4597 43.3471 39.3246 43.3471 39.164V36.0725C43.3471 35.9119 43.38 35.7769 43.4457 35.6637C43.5114 35.5506 43.6026 35.4666 43.7121 35.4119C43.8253 35.3571 43.9384 35.317 44.0552 35.2951C44.172 35.2732 44.2961 35.2622 44.4312 35.2622H46.1612V35.6564H44.4676V35.6455Z" fill="white"/>
<path d="M50.7164 39.6861C50.7164 39.8358 50.6617 39.927 50.5485 39.9598C50.4354 39.9963 50.3405 39.9598 50.2675 39.8576L47.3913 36.1018V39.9708H46.946V35.5361C46.946 35.3864 47.0007 35.2952 47.1139 35.2623C47.227 35.2258 47.3219 35.2623 47.3949 35.3645L50.2711 39.1204V35.2514H50.7164V39.6861Z" fill="white"/>
<path d="M53.2713 35.6457V39.9709H52.8261V35.6457H51.4135V35.2515H54.6729V35.6457H53.2713Z" fill="white"/>
<path d="M58.312 35.5726C58.6661 35.8061 58.9362 36.1054 59.1187 36.4631C59.3048 36.8245 59.3961 37.2077 59.3961 37.6092C59.3961 38.0107 59.3048 38.394 59.1187 38.7553C58.9325 39.1167 58.6661 39.416 58.312 39.6496C57.958 39.8832 57.5638 40 57.1294 40C56.6914 40 56.2936 39.8832 55.9432 39.6532C55.5928 39.4233 55.3227 39.1276 55.1402 38.7663C54.954 38.4049 54.8628 38.018 54.8628 37.6092C54.8628 37.1968 54.954 36.8135 55.1402 36.4522C55.3263 36.0908 55.5928 35.7952 55.9432 35.5653C56.2936 35.3353 56.6914 35.2185 57.1294 35.2185C57.5674 35.2222 57.9616 35.339 58.312 35.5726ZM55.8337 36.204C55.4833 36.5799 55.3081 37.0471 55.3081 37.6092C55.3081 38.1713 55.4833 38.6422 55.8337 39.0181C56.1841 39.3941 56.6184 39.5802 57.1294 39.5802C57.6441 39.5802 58.0748 39.3904 58.4252 39.0108C58.7756 38.6312 58.9508 38.164 58.9508 37.6092C58.9508 37.0544 58.7756 36.5872 58.4252 36.2076C58.0748 35.828 57.6404 35.6383 57.1294 35.6383C56.6184 35.6419 56.1841 35.8281 55.8337 36.204Z" fill="white"/>
<path d="M63.0716 35.6455C62.8526 35.6455 62.6847 35.6856 62.5679 35.7696C62.4511 35.8499 62.3927 36.0068 62.3927 36.2331V37.4157H64.6593V37.8099H62.3927V38.9925C62.3927 39.2188 62.4511 39.3721 62.5679 39.4524C62.6847 39.5327 62.8526 39.5728 63.0716 39.5728H64.7651V39.9743H63.0351C62.9 39.9743 62.7759 39.9634 62.6591 39.9415C62.5423 39.9196 62.4292 39.8794 62.316 39.8247C62.2029 39.7699 62.1153 39.686 62.0496 39.5728C61.9839 39.4597 61.951 39.3246 61.951 39.164V36.0725C61.951 35.9119 61.9839 35.7769 62.0496 35.6637C62.1153 35.5506 62.2029 35.4666 62.316 35.4119C62.4292 35.3571 62.5423 35.317 62.6591 35.2951C62.7759 35.2732 62.9 35.2622 63.0351 35.2622H64.7651V35.6564H63.0716V35.6455Z" fill="white"/>
<path d="M69.167 35.6457V39.9709H68.7217V35.6457H67.3091V35.2515H70.5686V35.6457H69.167Z" fill="white"/>
<path d="M73.2075 35.2515C73.4484 35.2515 73.6784 35.3026 73.8937 35.4011C74.1091 35.4997 74.2916 35.653 74.4412 35.8647C74.5909 36.0727 74.6675 36.3209 74.6675 36.602C74.6675 36.9159 74.5799 37.1786 74.4047 37.4013C74.2295 37.6203 73.9996 37.7809 73.7185 37.8794C74.047 38.0802 74.2879 38.3722 74.4376 38.7554C74.5909 39.1387 74.6675 39.5438 74.6675 39.9745H74.2222C74.2222 39.9453 74.2222 39.9088 74.2186 39.8614C74.2149 39.8139 74.2076 39.7227 74.193 39.5876C74.1784 39.4526 74.1565 39.3212 74.1273 39.1971C74.0981 39.073 74.0507 38.9343 73.985 38.7846C73.9193 38.635 73.8426 38.5036 73.7587 38.3941C73.6711 38.2846 73.5579 38.1897 73.4119 38.1167C73.2659 38.0437 73.1053 38.0072 72.9301 38.0072H71.7147V39.9782H71.2694V36.0837C71.2694 35.5289 71.638 35.2515 72.3717 35.2515H73.2075ZM72.4118 35.6457C72.1819 35.6457 72.0067 35.6858 71.8899 35.7625C71.7731 35.8391 71.7147 36.0034 71.7147 36.2479V37.602H73.0396C73.1783 37.602 73.3097 37.5874 73.4338 37.5546C73.5579 37.5217 73.6784 37.4706 73.7952 37.3976C73.912 37.3246 74.0069 37.2224 74.0762 37.0874C74.1456 36.9523 74.1821 36.7881 74.1821 36.602C74.1821 36.4487 74.1565 36.3173 74.1091 36.2041C74.058 36.0873 73.9959 35.9961 73.9193 35.9267C73.8426 35.8574 73.7514 35.799 73.6492 35.7588C73.5433 35.715 73.4411 35.6858 73.3426 35.6712C73.2404 35.6566 73.1345 35.6493 73.025 35.6493H72.4118V35.6457Z" fill="white"/>
<path d="M76.4925 35.6455C76.2735 35.6455 76.1056 35.6856 75.9888 35.7696C75.872 35.8535 75.8136 36.0068 75.8136 36.2331V37.4157H78.0802V37.8099H75.8136V38.9925C75.8136 39.2188 75.872 39.3721 75.9888 39.4524C76.1056 39.5327 76.2735 39.5728 76.4925 39.5728H78.1861V39.9743H76.456C76.3209 39.9743 76.1932 39.9634 76.08 39.9415C75.9632 39.9196 75.8501 39.8794 75.7369 39.8247C75.6238 39.7699 75.5362 39.686 75.4705 39.5728C75.4048 39.4597 75.3719 39.3246 75.3719 39.164V36.0725C75.3719 35.9119 75.4048 35.7769 75.4705 35.6637C75.5362 35.5506 75.6238 35.4666 75.7369 35.4119C75.8501 35.3571 75.9632 35.317 76.08 35.2951C76.1968 35.2732 76.3209 35.2622 76.456 35.2622H78.1861V35.6564H76.4925V35.6455Z" fill="white"/>
<path d="M78.9708 39.9709V35.2515H79.4161V39.9709H78.9708Z" fill="white"/>
<path d="M83.9713 39.6861C83.9713 39.8358 83.9129 39.927 83.8034 39.9598C83.6902 39.9963 83.5953 39.9598 83.5223 39.8576L80.6461 36.1018V39.9708H80.2008V35.5361C80.2008 35.3864 80.2556 35.2952 80.3687 35.2623C80.4819 35.2258 80.5768 35.2623 80.6498 35.3645L83.526 39.1204V35.2514H83.9713V39.6861Z" fill="white"/>
<path d="M86.7671 35.2843C86.7963 35.3062 86.8182 35.3245 86.8328 35.3464L86.8511 35.3756L88.8403 39.9709H88.3585L87.8475 38.7956H85.5188L85.0334 39.9709H84.5516L86.4751 35.3756C86.508 35.2916 86.57 35.2515 86.6613 35.2515C86.7014 35.2515 86.7379 35.2624 86.7671 35.2843ZM87.6577 38.3503L86.6613 36.0472L85.705 38.3503H87.6577Z" fill="white"/>
<path d="M93.1436 35.3645C93.2166 35.266 93.3115 35.2331 93.4247 35.266C93.5378 35.2988 93.5926 35.3901 93.5926 35.5361V39.9708H93.1473V36.1748L91.7785 38.1641C91.7238 38.2736 91.6325 38.332 91.5011 38.332C91.4427 38.332 91.3916 38.3174 91.3478 38.2882C91.304 38.259 91.2712 38.2334 91.2566 38.2079L91.2274 38.1641L89.866 36.1748V39.9671H89.4207V35.5361C89.4207 35.3864 89.4754 35.2988 89.5886 35.266C89.6981 35.2331 89.793 35.266 89.8733 35.3645L91.5048 37.7662L93.1436 35.3645Z" fill="white"/>
<path d="M95.5014 35.6455C95.2824 35.6455 95.1145 35.6856 94.9977 35.7696C94.8809 35.8499 94.8225 36.0068 94.8225 36.2331V37.4157H97.0892V37.8099H94.8262V38.9925C94.8262 39.2188 94.8846 39.3721 95.0014 39.4524C95.1182 39.5327 95.2861 39.5728 95.5051 39.5728H97.1987V39.9743H95.4686C95.3336 39.9743 95.2095 39.9634 95.0927 39.9415C94.9759 39.9196 94.8627 39.8794 94.7495 39.8247C94.6364 39.7699 94.5488 39.686 94.4831 39.5728C94.4174 39.4597 94.3846 39.3246 94.3846 39.164V36.0725C94.3846 35.9119 94.4174 35.7769 94.4831 35.6637C94.5488 35.5506 94.6364 35.4666 94.7495 35.4119C94.8627 35.3571 94.9759 35.317 95.0927 35.2951C95.2095 35.2732 95.3336 35.2622 95.4686 35.2622H97.1987V35.6564H95.5014V35.6455Z" fill="white"/>
<path d="M101.75 39.6861C101.75 39.8358 101.692 39.927 101.582 39.9598C101.469 39.9963 101.374 39.9598 101.301 39.8576L98.4251 36.1018V39.9708H97.9798V35.5361C97.9798 35.3864 98.0346 35.2952 98.1477 35.2623C98.2608 35.2258 98.3557 35.2623 98.4287 35.3645L101.305 39.1204V35.2514H101.75V39.6861Z" fill="white"/>
<path d="M104.309 35.6457V39.9709H103.864V35.6457H102.455V35.2515H105.714V35.6457H104.309Z" fill="white"/>
<path d="M109.349 35.5726C109.703 35.8061 109.97 36.1054 110.156 36.4631C110.342 36.8245 110.433 37.2077 110.433 37.6092C110.433 38.0107 110.342 38.394 110.156 38.7553C109.97 39.1167 109.703 39.416 109.349 39.6496C108.995 39.8832 108.601 40 108.167 40C107.729 40 107.331 39.8832 106.981 39.6532C106.63 39.4233 106.36 39.1276 106.178 38.7663C105.991 38.4049 105.9 38.018 105.9 37.6092C105.9 37.1968 105.991 36.8135 106.178 36.4522C106.364 36.0908 106.63 35.7952 106.981 35.5653C107.331 35.3353 107.729 35.2185 108.167 35.2185C108.601 35.2222 108.995 35.339 109.349 35.5726ZM106.871 36.204C106.521 36.5799 106.346 37.0471 106.346 37.6092C106.346 38.1713 106.521 38.6422 106.871 39.0181C107.221 39.3941 107.656 39.5802 108.167 39.5802C108.678 39.5802 109.112 39.3904 109.463 39.0108C109.813 38.6312 109.988 38.164 109.988 37.6092C109.988 37.0544 109.813 36.5872 109.463 36.2076C109.112 35.828 108.678 35.6383 108.167 35.6383C107.656 35.6383 107.221 35.8281 106.871 36.204Z" fill="white"/>
<path d="M113.664 35.7258C113.423 35.671 113.178 35.6382 112.937 35.6272C112.696 35.6163 112.459 35.6236 112.229 35.6565C111.999 35.6893 111.813 35.7696 111.667 35.8937C111.525 36.0178 111.448 36.1857 111.445 36.3901C111.445 36.5397 111.485 36.6748 111.565 36.7879C111.645 36.9047 111.751 36.996 111.89 37.0617C112.025 37.131 112.178 37.1967 112.35 37.2661C112.521 37.3354 112.693 37.3938 112.868 37.4449C113.043 37.496 113.211 37.5617 113.375 37.6457C113.54 37.726 113.686 37.8172 113.81 37.9158C113.934 38.0143 114.029 38.1457 114.094 38.3063C114.156 38.4669 114.178 38.6531 114.16 38.8648C114.127 39.2006 113.992 39.4634 113.755 39.6495C113.518 39.8357 113.229 39.9452 112.89 39.9744C112.55 40.0036 112.207 39.989 111.853 39.9379C111.503 39.8831 111.171 39.7955 110.864 39.6714L110.992 39.332C111.233 39.4159 111.503 39.478 111.791 39.5218C112.083 39.5656 112.375 39.5802 112.667 39.5692C112.959 39.5583 113.2 39.4816 113.394 39.3466C113.587 39.2115 113.682 39.0144 113.682 38.7626C113.682 38.5947 113.638 38.4487 113.547 38.3282C113.456 38.2078 113.339 38.1092 113.193 38.0399C113.047 37.9669 112.886 37.9012 112.707 37.8428C112.529 37.7844 112.346 37.7223 112.164 37.6566C111.977 37.5909 111.806 37.5143 111.645 37.4303C111.485 37.3464 111.346 37.2332 111.226 37.0909C111.105 36.9485 111.032 36.7806 110.999 36.5872C110.937 36.2331 111.028 35.9338 111.266 35.693C111.507 35.4521 111.842 35.3061 112.273 35.2586C112.704 35.2075 113.197 35.2477 113.751 35.3754L113.664 35.7258Z" fill="white"/>
<path fill-rule="evenodd" clip-rule="evenodd" d="M0 32.5431V0H16.0891V0.00364997C21.3596 0.0583995 25.6556 4.37996 25.6556 9.66147V13.2092L21.4764 7.32178H17.9286L24.0423 15.9357L17.9286 24.5825H21.4764L25.6556 18.695V32.5431H0ZM25.9695 18.6863V32.5431H114.149V0H35.536V0.00364997C30.2655 0.0583995 25.9695 4.37996 25.9695 9.66147V13.2179L30.1232 7.32178H33.671L27.5901 15.9357L33.671 24.5825H30.1232L25.9695 18.6863ZM85.2085 9.71614V12.1434H80.2446V18.9615C80.2446 19.6879 80.3395 20.3083 80.5293 20.8157C80.7191 21.323 80.9819 21.699 81.3213 21.9326C81.6571 22.1698 82.0039 22.3523 82.3579 22.4764C82.712 22.6042 83.1062 22.6553 83.5442 22.6261C83.9821 22.6005 84.3252 22.5677 84.5807 22.5312C84.8362 22.4947 85.1063 22.4399 85.3983 22.3669L85.8071 24.0021C84.7523 24.4401 83.7376 24.6701 82.7667 24.6993C81.7958 24.7248 80.9271 24.5496 80.1643 24.1664C79.4014 23.7831 78.7919 23.1444 78.3356 22.2428C77.8794 21.3413 77.6531 20.228 77.6531 18.9031V6.36182H80.2446V9.71614H85.2085ZM63.2869 11.625C64.1775 12.7529 64.422 13.95 64.0242 15.2239C63.6227 16.589 62.5897 17.5343 60.9144 18.0599C60.115 18.3154 59.2135 18.4432 58.2134 18.4432H54.0962C54.3517 19.6075 54.9102 20.5638 55.7716 21.3193C56.6366 22.0749 57.6659 22.4508 58.8668 22.4508C60.0858 22.4508 61.1042 22.2063 61.9218 21.7135L62.9839 23.1297C61.7283 24.1846 60.2464 24.7101 58.5383 24.7101C56.5381 24.7101 54.8408 23.9729 53.4392 22.5019C52.0413 21.031 51.3405 19.2388 51.3405 17.1292C51.3405 15.0012 52.034 13.2127 53.4246 11.7564C54.8153 10.3037 56.5271 9.57373 58.5638 9.57373C60.6589 9.58103 62.232 10.2636 63.2869 11.625ZM55.7205 12.9901C54.8554 13.7712 54.3079 14.753 54.0707 15.9356H58.3229C59.9946 15.9356 61.0312 15.4794 61.4327 14.5705C61.7429 13.8989 61.5969 13.2529 60.9947 12.6361C60.4691 12.0922 59.7573 11.8185 58.8668 11.8185C57.6331 11.8185 56.5819 12.209 55.7205 12.9901ZM49.271 17.1621C49.271 14.9465 48.53 13.1252 47.0481 11.709C45.5699 10.2892 43.5186 9.58108 40.9052 9.58473C40.3212 9.58473 39.781 9.62853 39.281 9.71978C38.7809 9.81103 38.2809 9.96068 37.7809 10.1687C37.2808 10.3768 36.8866 10.7053 36.5946 11.1506C36.3026 11.5959 36.1566 12.1288 36.1566 12.7456V30.9334H38.7481V23.8707C39.7664 24.4146 40.8906 24.681 42.117 24.6737C43.3434 24.6627 44.4895 24.4 45.5516 23.8817C46.6138 23.367 47.5007 22.5166 48.2088 21.334C48.9169 20.1514 49.271 18.7607 49.271 17.1621ZM39.416 12.2383C39.6423 12.1215 39.8613 12.0448 40.0694 12.0083C40.2774 11.9718 40.5658 11.9536 40.9308 11.9499C42.0221 11.9499 42.9675 12.1215 43.7668 12.4682C44.5661 12.815 45.1611 13.2639 45.5516 13.8187C45.9422 14.3735 46.2269 14.9283 46.4094 15.4831C46.5919 16.0342 46.6831 16.5963 46.6831 17.1584C46.6831 18.268 46.4349 19.2352 45.9349 20.0638C45.4348 20.8923 44.7997 21.5019 44.0259 21.8924C43.2522 22.283 42.3944 22.4728 41.4491 22.4655C40.5037 22.4582 39.6022 22.2355 38.7481 21.7975V13.9428C38.7481 13.4865 38.8028 13.1179 38.9123 12.8369C39.0218 12.5558 39.1897 12.3551 39.416 12.2383ZM74.3025 11.9244C74.5032 11.9609 74.7368 12.0156 75.0106 12.0886L75.423 10.4242C74.3134 9.97164 73.233 9.7198 72.1782 9.676C71.1233 9.6322 70.1598 9.78549 69.2874 10.1395C68.4151 10.4936 67.7143 11.136 67.1887 12.0631C66.6594 12.9902 66.3966 14.1509 66.3966 15.5524V24.5752H68.9881V15.494C68.9881 14.8225 69.083 14.2458 69.2728 13.764C69.4626 13.2822 69.6926 12.9099 69.9663 12.6471C70.2401 12.3843 70.5832 12.1799 71.0029 12.0339C71.4226 11.8879 71.7986 11.8003 72.1344 11.7747C72.4702 11.7455 72.8644 11.7565 73.3206 11.8003C73.7769 11.8477 74.1017 11.8879 74.3025 11.9244ZM88.8075 10.5081C93.0962 9.23431 96.0782 9.53725 97.7499 11.4097C98.4397 12.282 98.7865 13.6289 98.7865 15.4466V21.1186C98.7865 22.1734 98.3777 23.0348 97.5601 23.7101C96.7425 24.3817 95.4139 24.7175 93.578 24.7175C93.1254 24.7175 92.6691 24.681 92.2129 24.608C91.7566 24.535 91.2128 24.389 90.5777 24.17C89.9426 23.951 89.3842 23.5823 88.9024 23.064C88.4206 22.5457 88.0994 21.907 87.9351 21.1405C87.7891 20.5967 87.749 20.0638 87.811 19.5455C87.8731 19.0272 87.9972 18.5381 88.1797 18.0745C88.3622 17.611 88.6761 17.1839 89.1214 16.7934C89.5667 16.4028 90.0995 16.067 90.7164 15.786C91.3332 15.505 92.1107 15.2969 93.0487 15.1582C93.9868 15.0232 95.0343 14.9721 96.1986 15.0086C96.1986 13.6982 95.6986 12.8186 94.6985 12.3623C93.3006 11.7455 91.5449 11.7272 89.4353 12.3076L88.8075 10.5081ZM96.195 17.1876C94.7241 17.1876 93.5305 17.2934 92.6217 17.5015C91.7128 17.7095 91.0777 18.1147 90.7127 18.7133C90.4938 19.06 90.3842 19.4396 90.3842 19.8594C90.3842 20.2791 90.4901 20.6733 90.6981 21.0456C90.9062 21.4179 91.2566 21.7281 91.7493 21.9727C92.2384 22.2172 92.8224 22.3413 93.494 22.3413C93.859 22.3413 94.1656 22.3231 94.4211 22.2866C94.6766 22.2501 94.954 22.1734 95.2533 22.0566C95.5526 21.9398 95.7862 21.7354 95.9504 21.4434C96.1147 21.1515 96.195 20.7792 96.195 20.3266V17.1876ZM110.021 12.0886C109.747 12.0156 109.514 11.9609 109.313 11.9244C109.112 11.8879 108.787 11.8477 108.331 11.8003C107.879 11.7565 107.481 11.7455 107.145 11.7747C106.809 11.8003 106.43 11.8879 106.013 12.0339C105.594 12.1799 105.251 12.3843 104.977 12.6471C104.703 12.9099 104.473 13.2822 104.283 13.764C104.094 14.2458 103.999 14.8225 103.999 15.494V24.5752H101.407V15.5524C101.407 14.1509 101.67 12.9902 102.199 12.0631C102.725 11.136 103.426 10.4936 104.298 10.1395C105.17 9.78549 106.134 9.6322 107.189 9.676C108.244 9.7198 109.324 9.97164 110.434 10.4242L110.021 12.0886ZM15.6328 11.5886C16.5234 12.7165 16.7679 13.9173 16.3701 15.1875C15.9686 16.5526 14.9357 17.4979 13.2603 18.0235C12.461 18.279 11.5594 18.4068 10.5594 18.4068H6.44219C6.69769 19.5711 7.25613 20.5274 8.11752 21.2829C8.98257 22.0385 10.0119 22.4144 11.2127 22.4144C12.4318 22.4144 13.4501 22.1699 14.2677 21.6771L15.3299 23.0933C14.0743 24.1482 12.5924 24.6738 10.8842 24.6738C8.88402 24.6738 7.18313 23.9365 5.78519 22.4655C4.38726 20.9946 3.68646 19.2025 3.68646 17.0928C3.68646 14.9649 4.37996 13.1764 5.77059 11.72C7.16123 10.2673 8.87307 9.53735 10.9097 9.53735C13.0048 9.54465 14.578 10.2272 15.6328 11.5886ZM8.06642 12.9537C7.20138 13.7348 6.65389 14.7167 6.41664 15.8992H10.6688C12.3405 15.8992 13.3771 15.4467 13.7786 14.5342C14.0889 13.8626 13.9429 13.2165 13.3406 12.5997C12.815 12.0558 12.1033 11.7821 11.2127 11.7821C9.97901 11.7821 8.92782 12.1726 8.06642 12.9537Z" fill="white"/>
</g>
<defs>
<clipPath id="clip0_247_686">
<rect width="114.164" height="40" fill="white"/>
</clipPath>
</defs>
</svg>
