<svg width="18" height="26" viewBox="0 0 18 26" fill="none" xmlns="http://www.w3.org/2000/svg">
<path opacity="0.16" d="M1 9C1 6.87827 1.84285 4.84344 3.34315 3.34315C4.84344 1.84285 6.87827 1 9 1C11.1217 1 13.1566 1.84285 14.6569 3.34315C16.1571 4.84344 17 6.87827 17 9V17C17 19.1217 16.1571 21.1566 14.6569 22.6569C13.1566 24.1571 11.1217 25 9 25C6.87827 25 4.84344 24.1571 3.34315 22.6569C1.84285 21.1566 1 19.1217 1 17V9Z" fill="white"/>
<path d="M1 9C1 6.87827 1.84286 4.84344 3.34315 3.34315C4.84344 1.84286 6.87827 1 9 1C11.1217 1 13.1566 1.84286 14.6569 3.34315C16.1571 4.84344 17 6.87827 17 9V17C17 19.1217 16.1571 21.1566 14.6569 22.6569C13.1566 24.1571 11.1217 25 9 25C6.87827 25 4.84344 24.1571 3.34315 22.6569C1.84286 21.1566 1 19.1217 1 17V9Z" stroke="white" stroke-width="2" stroke-linejoin="round"/>
<path d="M9 6.33337V11.6667" stroke="white" stroke-width="2" stroke-linecap="round" stroke-linejoin="round"/>
</svg>
