<svg width="34" height="24" viewBox="0 0 34 24" fill="none" xmlns="http://www.w3.org/2000/svg">
<path d="M13.6667 17L22.3167 12L13.6667 7.00004V17ZM32.9333 3.95004C33.15 4.73337 33.3 5.78337 33.4 7.11671C33.5167 8.45004 33.5667 9.60004 33.5667 10.6L33.6667 12C33.6667 15.65 33.4 18.3334 32.9333 20.05C32.5167 21.55 31.55 22.5167 30.05 22.9334C29.2667 23.15 27.8333 23.3 25.6333 23.4C23.4667 23.5167 21.4833 23.5667 19.65 23.5667L17 23.6667C10.0167 23.6667 5.66668 23.4 3.95001 22.9334C2.45001 22.5167 1.48334 21.55 1.06668 20.05C0.85001 19.2667 0.70001 18.2167 0.60001 16.8834C0.483344 15.55 0.433343 14.4 0.433343 13.4L0.333344 12C0.333344 8.35004 0.60001 5.66671 1.06668 3.95004C1.48334 2.45004 2.45001 1.48337 3.95001 1.06671C4.73334 0.850041 6.16668 0.70004 8.36668 0.60004C10.5333 0.483374 12.5167 0.433374 14.35 0.433374L17 0.333374C23.9833 0.333374 28.3333 0.600041 30.05 1.06671C31.55 1.48337 32.5167 2.45004 32.9333 3.95004Z" fill="#16171E"/>
</svg>
